<?xml version="1.0" encoding="utf-8"?>
<!-- Generator: Adobe Illustrator 21.0.2, SVG Export Plug-In . SVG Version: 6.00 Build 0)  -->
<svg version="1.1" id="Layer_1" xmlns="http://www.w3.org/2000/svg" xmlns:xlink="http://www.w3.org/1999/xlink" x="0px" y="0px"
	 viewBox="0 0 105.1 87.3" style="enable-background:new 0 0 105.1 87.3;" xml:space="preserve">
<style type="text/css">
	.st0{fill:#FF2900;}
</style>
<g>
	<g>
		<path class="st0" d="M99.2,35.4l0.2,0H29l22.1-22.2c1.1-1.1,1.7-2.5,1.7-4.1c0-1.5-0.6-3-1.7-4.1l-3.4-3.4C46.6,0.6,45.2,0,43.7,0
			c-1.5,0-3,0.6-4.1,1.7L1.7,39.6C0.6,40.7,0,42.1,0,43.7c0,1.5,0.6,3,1.7,4.1l37.9,37.9c1.1,1.1,2.5,1.7,4.1,1.7
			c1.5,0,3-0.6,4.1-1.7l3.4-3.4c1.1-1.1,1.7-2.5,1.7-4.1c0-1.5-0.6-2.9-1.7-4L28.8,51.9h70.5c3.2,0,5.8-2.7,5.8-5.9v-4.9
			C105.1,37.9,102.4,35.4,99.2,35.4z"/>
	</g>
</g>
</svg>
